<?xml version="1.0" encoding="UTF-8" standalone="no"?><!-- Generator: Gravit.io -->
<svg xmlns="http://www.w3.org/2000/svg" xmlns:xlink="http://www.w3.org/1999/xlink" style="isolation:isolate"
     viewBox="1480.314 560.2 645.586 509.215" width="645.586pt" height="509.215pt">
    <circle cx="1871.3000000000002" cy="814.8" r="254.5999999999999"
            fill="rgb(25,170,30)"/>
    <path
        d=" M 1761 1044.4 C 1772.2 1049.8 1785.8 1055.4 1801.8 1059.9 C 1822.2 1065.6 1840.4 1068.2 1855.2 1069 C 1849.8 960 1844.5 850.8 1839.1 741.9 L 1839 739.3 C 1839 739.3 1834.4 731.6 1834.9 724 C 1835.4 716.3 1833.9 710.7 1833.9 710.7 C 1833.9 710.7 1767 756.6 1765.5 759.2 C 1763.8 761.7 1764.1 1038.3 1761 1044.4 Z "
        fill="rgb(0,65,195)"/>
    <path
        d=" M 1567.6 978.9 C 1567.6 978.9 1567.5 980 1561.9 985 C 1559.1 987.5 1556.6 990.2 1549.6 993.2 C 1546.7 994.5 1537.9 1001.6 1536.6 1003.3 C 1533.7 1007.2 1532.1 1008.8 1525.2 1018 C 1520.3 1024.6 1507.6 1029.6 1515.4 1017.7 C 1518.5 1013 1526.6 1003.2 1535.9 994.5 C 1533.2 994.5 1514.8 1012.3 1514.8 1012.3 C 1514.8 1012.3 1504.1 1024.4 1500.6 1022.1 C 1497.2 1019.8 1513 996.4 1525.3 992.2 C 1525.3 992.2 1508.1 1000.8 1500.4 1010.2 C 1492.7 1019.6 1487.4 1009.1 1490.8 1005.6 C 1494.2 1002.1 1509.6 987.4 1513.2 985.7 C 1516.8 984 1487.5 1003.5 1482.6 1001.6 C 1477.6 999.7 1479.3 991.5 1503.1 986.9 C 1516.1 978.5 1519.8 972.7 1519.8 972.7 C 1519.8 972.7 1503.7 986.7 1502 985.9 C 1500.3 985.1 1490.5 980.3 1517.7 957.4 C 1517.7 957.4 1532.1 944.2 1556 949.9 C 1585.9 957.2 1567.6 978.9 1567.6 978.9 Z "
        fill="rgb(255,185,25)"/>
    <path
        d=" M 1793.6 845.1 C 1793.6 845.1 1773.2 958.4 1706.8 974.8 C 1640.4 991.2 1571 985 1571 985 C 1571 985 1548.5 960.5 1552.6 941.1 C 1556.7 921.7 1664.9 914.6 1676.1 894.1 C 1687.3 873.7 1767 757.3 1767 757.3 C 1767 757.3 1804.8 796.1 1793.6 845.1 Z "
        fill="rgb(0,65,195)"/>
    <path
        d=" M 2033.5 680.8 C 2033.5 680.8 2034.5 672.5 2038.3 649.9 C 2042.9 622.2 2030.5 614.5 2005.3 637.2 C 1980.1 660 2015.1 690.2 2015.1 690.2 L 2033.5 680.8 Z "
        fill="rgb(255,185,25)"/>
    <path
        d=" M 1956.3 837.3 C 1956.3 837.3 1994.2 909.9 2042.1 908.8 C 2147.3 906.2 2044.1 694.4 2037 678.1 C 2032.7 677.4 2022.2 672.2 2004.8 677.3 C 1987.4 682.4 2014.7 787.6 2008.6 780.7 C 1961.8 727 1958.1 728.6 1958.1 728.6 L 1956.3 837.3 Z "
        fill="rgb(0,65,195)"/>
    <path
        d=" M 1847.8 719.4 C 1847.8 719.4 1845.7 727.3 1887.8 728.8 C 1890.1 714.3 1891.7 712.5 1891.7 712.5 L 1903.5 712.5 C 1903.5 712.5 1929.3 716.3 1930.5 765.7 C 1931.6 815.1 1945.4 1058.4 1945.4 1058.4 C 1929.2 1063.4 1905.5 1068.8 1881.2 1069.3 C 1874.9 1069.4 1868.8 1069.5 1862.9 1069.3 C 1856.6 952.2 1850.3 834.9 1844 717.8 L 1847.8 719.4 Z "
        fill="rgb(200,200,200)"/>
    <path
        d=" M 1852.7 743.3 L 1839 741.8 L 1855.1 1068.9 C 1856.8 1069 1858.5 1069.1 1860.3 1069.2 C 1862.7 1069.3 1865.1 1069.4 1867.4 1069.4 C 1862.5 960.7 1857.6 852 1852.7 743.3 Z "
        fill="rgb(0,21,128)"/>
    <path
        d=" M 1945.4 1058.4 C 1944.3 1058.8 1943.1 1059.1 1941.9 1059.4 C 1939.7 1060.1 1937.6 1060.6 1935.6 1061.1 C 1928.8 953.3 1921.9 845.4 1915.1 737.6 L 1929.5 738.5 L 1945.4 1058.4 Z "
        fill="rgb(0,21,128)"/>
    <path
        d=" M 1892 703.5 C 1892 703.5 1972.7 719.8 1973.7 748.4 C 1974.7 777 1986.9 1041.7 1986.9 1041.7 C 1981.6 1044.2 1975.7 1047.1 1967.7 1050.3 C 1960.5 1053.2 1955.5 1055.4 1945.4 1058.4 C 1945.4 1058.4 1930.2 750.8 1929.7 744.3 C 1928.9 732.5 1923.4 723.2 1892 703.5 Z "
        fill="rgb(0,65,195)"/>
    <path
        d=" M 1844.8 705.6 L 1852.7 743.4 C 1852.7 743.4 1841.7 744.1 1839 741.9 C 1835.1 738.6 1832.1 720.5 1833.8 710.7 C 1834.6 706.1 1844.8 705.6 1844.8 705.6 Z "
        fill="rgb(71,143,244)"/>
    <path
        d=" M 1928.8 738.6 C 1921.8 709.3 1908.9 710.2 1902.5 708.3 C 1896.8 706.6 1886.4 705.6 1894.8 712.5 C 1903.2 719.4 1915.1 737.8 1915.1 737.8"
        fill="rgb(71,143,244)"/>
    <path
        d=" M 1844.9 705.8 C 1844.9 705.8 1851 702.9 1847.7 666.7 C 1848 628.2 1845.1 607.3 1877 603.3 C 1905.1 604.4 1914.3 618.2 1914.9 626 C 1915.5 633.7 1915.5 633.7 1915.5 633.7 C 1915.5 633.7 1912.7 670.8 1913.1 672 C 1913.5 673.1 1915.2 689.6 1915.2 689.6 C 1915.2 689.6 1915.4 705.5 1913.1 709.3 C 1910.8 713.1 1906.3 715.2 1903.9 716.3 C 1901.4 717.4 1893.2 716.3 1893.2 716.3 C 1893.2 716.3 1894 720.5 1891.8 728.9 C 1890.2 734.7 1843 745 1844.9 705.8 Z "
        fill="rgb(255,185,25)"/>
    <ellipse cx="1906" cy="652.9" rx="4" ry="6.100000000000023"
             fill="rgb(26,26,26)"/>
    <path
        d=" M 1883.4 655.1 C 1880.1 655.1 1877.5 657.2 1877.5 655.8 C 1877.5 654.4 1880.2 653.1 1883.4 653.1 C 1886.7 653.1 1889.3 654.3 1889.3 655.8 C 1889.3 657.3 1886.6 655.1 1883.4 655.1 Z "
        fill="rgb(26,26,26)"/>
    <path
        d=" M 1854.3 667.9 C 1854.1 667.1 1849.5 655.3 1853.9 654.9 C 1857.9 654.6 1860.8 655.8 1860.7 663 C 1863.8 666 1866.1 662.3 1866.2 658.2 C 1866.1 651.9 1866 647 1866 647 C 1866 647 1880.9 640.2 1896 642 C 1918.7 644.6 1949.6 616.4 1894.7 596.7 C 1855.7 582.7 1844.9 616.8 1844.9 616.8 C 1844.9 616.8 1843.1 621.1 1845.9 636.7 C 1847.1 643.5 1846.6 658.5 1846.7 669.9 C 1846.7 669.9 1858.4 685.8 1854.3 667.9 Z "
        fill="rgb(26,26,26)"/>
    <path
        d=" M 1915.2 649.5 C 1932.5 648.5 2107 626.8 2107 626.8 C 2107 626.8 2111.2 679.2 2106.7 678.8 C 2102.2 678.5 1915.2 657.2 1915.2 657.2 C 1912.7 656.3 1911.2 654.7 1911.4 653 C 1911.7 650.8 1914.9 649.6 1915.2 649.5 Z "
        fill="rgb(36,106,132)"/>
    <path
        d=" M 2095 652.5 C 2095 667.2 2101.5 679.2 2109.5 679.2 C 2117.5 679.2 2124 667.3 2124 652.5 C 2124 637.8 2117.5 625.8 2109.5 625.8 C 2108.5 625.8 2107.5 626 2106.6 626.3 C 2100 628.8 2095 639.6 2095 652.5 Z "
        fill="rgb(36,106,132)"/>
    <ellipse cx="2109.5" cy="652.2" rx="11.099999999999909"
             ry="21.100000000000023" fill="rgb(0,151,250)"/>
    <path
        d=" M 1895.6 704.2 C 1888.4 703.7 1882.9 697.2 1883.4 690.2 C 1883.9 683.1 1893.6 688.9 1900.9 689.4 C 1908.1 689.9 1910.1 685 1909.6 692.1 C 1909.1 699.2 1902.8 704.8 1895.6 704.2 Z "
        fill="rgb(255,255,255)"/>
    <path
        d=" M 2020.9 630.3 C 2020.9 630.3 2016.8 611.4 2001.5 628.5 C 1982.7 649.4 1995.7 650.6 2029.2 645 C 2062.7 639.4 2040.4 630.5 2040.4 630.5 L 2020.9 630.3 Z "
        fill="rgb(255,185,25)"/>
    <path
        d=" M 2007.1 663.9 C 2007.1 663.9 1991.7 639.5 1987.7 662.1 C 1987.1 665.4 1981.9 684.2 2015.4 678.6 C 2048.9 673 2026.4 668.9 2026.4 668.9 L 2007.1 663.9 Z "
        fill="rgb(255,185,25)"/>
    <path
        d=" M 1970.7 779.1 C 1969.9 795.8 1969.2 812.7 1972.3 829.2 C 1973.1 833.2 1974.1 837.2 1974.9 841.2 C 1975.7 845.3 1976.1 849.5 1976.3 853.7 C 1976.7 862.2 1976.6 870.7 1976.7 879.2 C 1976.9 896.1 1977.4 913 1979.7 929.7 C 1980.8 938.1 1982.2 946.4 1982.8 954.8 C 1983.4 963.3 1983.5 971.9 1983.5 980.4 C 1983.5 999.7 1983.4 1019 1983.4 1038.4 C 1983.4 1039 1986.3 1038.5 1986.3 1037.6 C 1986.3 1020.3 1986.4 1003.1 1986.4 985.8 C 1986.4 977.3 1986.4 968.7 1986.1 960.2 C 1985.7 951.7 1984.7 943.4 1983.5 935 C 1981 918.3 1980 901.5 1979.7 884.7 C 1979.5 876.2 1979.5 867.6 1979.4 859.1 C 1979.3 854.9 1979.2 850.7 1978.8 846.5 C 1978.3 842.4 1977.5 838.4 1976.6 834.4 C 1974.6 825.3 1973.5 816 1973.2 806.7 C 1972.9 797.3 1973.4 787.9 1973.8 778.5 C 1973.6 777.8 1970.7 778.2 1970.7 779.1 L 1970.7 779.1 Z "
        fill="rgb(26,26,26)"/>
    <path
        d=" M 1914 710.1 C 1928.9 714.5 1943.5 720.4 1956.4 729.1 C 1962.8 733.4 1968.7 738.4 1973.9 744 C 1979.2 749.7 1983.9 755.8 1988.8 761.8 C 1994.3 768.5 2000 774.9 2006.9 780.2 C 2008 781 2010.5 779.5 2009.1 778.5 C 1996.7 768.9 1988.2 755.6 1977.8 744.1 C 1967.3 732.6 1954.5 723.8 1940.4 717.3 C 1932.4 713.6 1924.1 710.6 1915.6 708.1 C 1914.9 707.9 1914 708 1913.6 708.6 C 1913.2 709.1 1913.3 709.9 1914 710.1 L 1914 710.1 Z "
        fill="rgb(26,26,26)"/>
    <path
        d=" M 2000.5 679.5 C 1999 682.7 1998.3 686.2 1997.8 689.7 C 1997.2 694.2 1997.1 698.8 1997.1 703.4 C 1997.3 712.9 1998.3 722.5 2000.6 731.7 C 2001.3 734.5 2001.9 737.4 2002.4 740.3 C 2003 743.4 2003.8 746.5 2004.2 749.7 C 2005.1 755.9 2005.7 762.3 2006.4 768.6 C 2007.8 781.4 2008.7 794.2 2009.6 807 C 2010.1 814.2 2010.6 821.4 2011.2 828.7 C 2011.4 831.3 2011.6 833.8 2011 836.3 C 2010.6 838 2009.8 840.3 2007.8 840.5 C 2007.2 840.6 2006.3 840.9 2006.2 841.6 C 2006.1 842.3 2007 842.4 2007.5 842.4 C 2011.9 841.9 2013.8 838.1 2014.2 834.2 C 2014.5 831.8 2014.2 829.4 2014 827 C 2013.7 823.6 2013.5 820.3 2013.2 816.9 C 2012.3 803.8 2011.4 790.6 2010.2 777.5 C 2009.6 770.9 2008.8 764.4 2008.1 757.9 C 2007.7 754.6 2007.5 751.4 2007 748.1 C 2006.5 744.9 2005.7 741.8 2005.1 738.7 C 2004.2 733.6 2002.8 728.5 2001.9 723.3 C 2001.1 718.4 2000.5 713.4 2000.2 708.4 C 1999.9 703 1999.8 697.5 2000.4 692 C 2000.8 687.9 2001.4 683.5 2003.2 679.7 C 2003.8 678.3 2000.9 678.5 2000.5 679.5 L 2000.5 679.5 Z "
        fill="rgb(26,26,26)"/>
    <path
        d=" M 2035.5 678.4 C 2040.6 689 2045.6 699.6 2050 710.4 C 2054.8 722 2059 733.7 2063 745.6 C 2067 757.4 2070.8 769.3 2074.7 781.1 C 2076.6 786.9 2078.9 792.6 2080 798.6 C 2080.5 801.5 2080.9 804.5 2081.5 807.4 C 2082.1 810.5 2082.9 813.6 2083.5 816.7 C 2085.8 827.8 2088.1 838.7 2087.6 850.1 C 2087.4 855.3 2086.8 860.4 2086.4 865.5 C 2086.3 867.2 2086.1 868.9 2085.7 870.6 C 2085.3 872.4 2084.8 874.1 2084.3 875.8 C 2083.4 878.9 2082.5 882.2 2081 885.2 C 2078.7 889.8 2075.6 894.4 2071.7 897.8 C 2069.7 899.5 2067.4 900.6 2065.2 901.8 C 2063.1 902.9 2061 904.1 2058.7 904.9 C 2053.4 906.8 2047.5 907.3 2042 907.3 C 2036.2 907.4 2030.5 906.8 2025 905 C 2019.5 903.2 2014.3 900.5 2009.5 897.3 C 2004.7 894.1 2000.3 890.4 1996 886.6 C 1992.1 883.1 1988.3 879.6 1985 875.5 C 1983.3 873.4 1981.7 871.2 1980.2 868.9 C 1979.6 867.9 1976.8 868.9 1977.5 870.1 C 1980.5 874.8 1984 879 1988 882.8 C 1992 886.7 1996.3 890.5 2000.7 894 C 2009.7 901.2 2020.3 907.2 2031.9 908.7 C 2037.7 909.5 2043.7 909.3 2049.5 908.6 C 2054.9 908 2059.9 906.6 2064.7 904 C 2067.1 902.7 2069.6 901.6 2071.8 900.1 C 2073.9 898.6 2075.8 896.8 2077.5 894.8 C 2080.3 891.5 2083 887.6 2084.5 883.5 C 2085.9 879.9 2087 876.3 2088 872.6 C 2088.4 871.2 2088.8 869.7 2089 868.2 C 2089.4 865.5 2089.5 862.8 2089.7 860.1 C 2090.1 855.1 2090.6 850.1 2090.6 845.1 C 2090.6 839.8 2090 834.6 2089.1 829.4 C 2088 822.8 2086.5 816.3 2085.1 809.8 C 2084.4 806.8 2083.8 803.7 2083.3 800.6 C 2082.8 797.5 2082.3 794.4 2081.3 791.4 C 2079.4 785.4 2077.2 779.4 2075.2 773.4 C 2073.2 767.4 2071.3 761.4 2069.3 755.4 C 2065.3 743.2 2061.2 731 2056.6 719 C 2052.1 707.3 2047 695.9 2041.7 684.5 C 2040.6 682.1 2039.4 679.6 2038.3 677.2 C 2037.8 676.4 2035 677.3 2035.5 678.4 L 2035.5 678.4 Z "
        fill="rgb(26,26,26)"/>
    <path
        d=" M 1832.9 710.2 C 1822.9 717.1 1812.3 723.2 1802.6 730.6 C 1798 734.1 1793.7 738 1789 741.4 C 1784.2 744.9 1779.3 748.1 1774.5 751.4 C 1771.9 753.2 1769.3 755.1 1766.7 757 C 1765.5 757.9 1764.3 758.7 1763.4 759.8 C 1761.7 761.9 1760.3 764.2 1758.8 766.5 C 1755.7 771.3 1752.9 776.3 1749.6 780.9 C 1744.4 788.3 1739.4 795.8 1734.4 803.4 C 1728.6 812.4 1722.1 820.9 1716.4 830 C 1713.2 835.2 1710.1 840.4 1706.8 845.5 C 1703.4 850.7 1699.6 855.5 1696 860.5 C 1692.5 865.3 1689.2 870.3 1686.1 875.4 C 1683.3 880 1680.9 884.7 1678.1 889.3 C 1675.4 893.6 1672.2 897.5 1667.8 899.9 C 1662.8 902.7 1657.6 904.8 1652.1 906.6 C 1640.3 910.4 1628.3 913.5 1616.2 916.1 C 1604.9 918.5 1593.6 921 1582.5 924.5 C 1576.7 926.3 1570.9 928.3 1565.2 930.5 C 1562.7 931.5 1560.2 932.4 1557.8 933.5 C 1556.3 934.2 1554.9 934.9 1553.8 936.1 C 1550.8 939.4 1550.2 944.9 1550.3 949.1 C 1550.4 954.6 1552.3 959.9 1554.8 964.8 C 1557.2 969.5 1560.1 973.9 1563.1 978.2 C 1565 981 1567.2 983.7 1570.4 985 C 1574.1 986.4 1578.2 986.8 1582.2 986.9 C 1586.2 987 1590.2 986.8 1594.2 986.7 C 1606.8 986.4 1619.3 986.8 1631.9 986.1 C 1644.3 985.5 1656.6 984.2 1668.9 982.5 C 1674.6 981.7 1680.4 981 1686.1 979.9 C 1691.8 978.8 1697.5 977.4 1703.2 976.2 C 1714.1 973.8 1724.6 969.8 1733.4 962.8 C 1742.1 955.9 1749.5 947.5 1756.2 938.7 C 1759.3 934.7 1762.2 930.5 1765 926.3 C 1765.8 925.1 1762.8 925.3 1762.3 926.2 C 1756.4 935.1 1750 943.7 1742.6 951.5 C 1738.9 955.4 1735 959.1 1730.7 962.5 C 1726.3 966 1721.3 968.7 1716.1 970.7 C 1710.8 972.7 1705.4 974.1 1699.9 975.2 C 1694.3 976.4 1688.7 977.9 1683 978.8 C 1671.3 980.7 1659.4 982.3 1647.6 983.4 C 1635.4 984.5 1623.2 984.9 1611 984.9 C 1604.9 984.9 1598.9 984.9 1592.8 985.1 C 1589.1 985.2 1585.3 985.3 1581.6 985.1 C 1578 984.9 1573.9 984.6 1570.8 982.6 C 1569.3 981.7 1568.2 980.1 1567.1 978.7 C 1565.9 977.2 1564.8 975.5 1563.7 973.9 C 1557.7 964.9 1551.6 954.6 1553.7 943.4 C 1554.1 941.3 1554.6 938.9 1555.9 937.2 C 1556.8 935.9 1558.2 935.3 1559.6 934.7 C 1565 932.4 1570.5 930.3 1576.1 928.4 C 1586.9 924.7 1598 921.8 1609.1 919.4 C 1620.8 916.8 1632.5 914.3 1644 911 C 1649.5 909.4 1655 907.8 1660.3 905.7 C 1665 903.8 1670 901.5 1673.8 898.2 C 1677.5 895 1680.2 890.9 1682.6 886.7 C 1685.3 882 1687.9 877.3 1690.8 872.7 C 1697.2 862.6 1704.9 853.4 1711.3 843.3 C 1714.5 838.3 1717.5 833.2 1720.6 828.3 C 1723.8 823.3 1727.4 818.5 1730.8 813.5 C 1735.4 806.8 1739.7 799.8 1744.2 793 C 1748.2 787.1 1752.4 781.3 1756.2 775.3 C 1758 772.4 1759.9 769.5 1761.7 766.6 C 1763.1 764.4 1764.5 762.1 1766.2 760.2 C 1767.3 758.9 1769.2 757.8 1770.6 756.8 C 1773 755 1775.5 753.3 1777.9 751.6 C 1782.7 748.3 1787.5 745.1 1792.1 741.7 C 1796.6 738.4 1800.8 734.6 1805.3 731.2 C 1810 727.6 1814.9 724.4 1819.8 721.2 C 1824.8 718 1829.8 714.8 1834.7 711.4 C 1836.3 710 1833.8 709.5 1832.9 710.2 L 1832.9 710.2 Z "
        fill="rgb(26,26,26)"/>
    <path
        d=" M 1762.5 1044.2 C 1763.3 1025.1 1763.9 1006.1 1764.4 987 C 1764.8 968 1765.1 949 1765.2 930.1 C 1765.3 911.2 1764.9 892.3 1765.3 873.4 C 1765.6 855.5 1766.9 837.5 1771.6 820.2 C 1775.8 804.9 1782.6 790 1793 778 C 1794.3 776.5 1795.6 775.1 1796.9 773.7 C 1798.1 772.5 1795.3 772.4 1794.6 773.1 C 1783.5 784.4 1775.8 798.4 1770.9 813.4 C 1765.3 830.2 1763.3 847.9 1762.7 865.5 C 1762 884.4 1762.5 903.4 1762.4 922.3 C 1762.3 941.5 1762.1 960.6 1761.8 979.8 C 1761.4 999 1760.8 1018.1 1760.1 1037.3 C 1760 1039.7 1759.9 1042.2 1759.8 1044.6 C 1759.5 1045.8 1762.4 1045.3 1762.5 1044.2 L 1762.5 1044.2 Z "
        fill="rgb(26,26,26)"/>
</svg>
