<?xml version="1.0" encoding="utf-8"?>
<svg version="1.1" id="Layer_1" xmlns="http://www.w3.org/2000/svg" xmlns:xlink="http://www.w3.org/1999/xlink" x="0px"
     y="0px"
     width="800"
     height="800"
     viewBox="700 450 1452.5 674.9" style="enable-background:new 0 0 1452.5 674.9;" xml:space="preserve">
<style type="text/css">
	.st0{fill:#FFFFFF;}
	.st1{fill:#19AA1E;}
	.st2{fill:#0041C3;}
	.st3{fill:#FFB919;}
	.st4{fill:#C8C8C8;}
	.st5{fill:#001580;}
	.st6{fill:#478FF4;}
	.st7{fill:#1A1A1A;}
	.st8{fill:#246A84;}
	.st9{fill:#0097FA;}
</style>
    <circle class="st1" cx="1106.7" cy="333.4" r="254.6"/>
    <path class="st2" d="M996.4,563c11.2,5.4,24.8,11,40.8,15.5c20.4,5.7,38.6,8.3,53.4,9.1c-5.4-109-10.7-218.2-16.1-327.1l-0.1-2.6
		c0,0-4.6-7.7-4.1-15.3c0.5-7.7-1-13.3-1-13.3s-66.9,45.9-68.4,48.5C999.2,280.3,999.5,556.9,996.4,563z"/>
    <path class="st3" d="M803,497.5c0,0-0.1,1.1-5.7,6.1c-2.8,2.5-5.3,5.2-12.3,8.2c-2.9,1.3-11.7,8.4-13,10.1
		c-2.9,3.9-4.5,5.5-11.4,14.7c-4.9,6.6-17.6,11.6-9.8-0.3c3.1-4.7,11.2-14.5,20.5-23.2c-2.7,0-21.1,17.8-21.1,17.8
		s-10.7,12.1-14.2,9.8c-3.4-2.3,12.4-25.7,24.7-29.9c0,0-17.2,8.6-24.9,18s-13-1.1-9.6-4.6s18.8-18.2,22.4-19.9
		c3.6-1.7-25.7,17.8-30.6,15.9c-5-1.9-3.3-10.1,20.5-14.7c13-8.4,16.7-14.2,16.7-14.2s-16.1,14-17.8,13.2
		c-1.7-0.8-11.5-5.6,15.7-28.5c0,0,14.4-13.2,38.3-7.5C821.3,475.8,803,497.5,803,497.5z"/>
    <path class="st2" d="M1029,363.7c0,0-20.4,113.3-86.8,129.7s-135.8,10.2-135.8,10.2s-22.5-24.5-18.4-43.9
		c4.1-19.4,112.3-26.5,123.5-47c11.2-20.4,90.9-136.8,90.9-136.8S1040.2,314.7,1029,363.7z"/>
    <path class="st3"
          d="M1268.9,199.4c0,0,1-8.3,4.8-30.9c4.6-27.7-7.8-35.4-33-12.7c-25.2,22.8,9.8,53,9.8,53L1268.9,199.4z"/>
    <path class="st2" d="M1191.7,355.9c0,0,37.9,72.6,85.8,71.5c105.2-2.6,2-214.4-5.1-230.7c-4.3-0.7-14.8-5.9-32.2-0.8
		c-17.4,5.1,9.9,110.3,3.8,103.4c-46.8-53.7-50.5-52.1-50.5-52.1L1191.7,355.9z"/>
    <path class="st4" d="M1083.2,238c0,0-2.1,7.9,40,9.4c2.3-14.5,3.9-16.3,3.9-16.3h11.8c0,0,25.8,3.8,27,53.2
		c1.1,49.4,14.9,292.7,14.9,292.7c-16.2,5-39.9,10.4-64.2,10.9c-6.3,0.1-12.4,0.2-18.3,0c-6.3-117.1-12.6-234.4-18.9-351.5
		L1083.2,238z"/>
    <path class="st5" d="M1088.1,261.9l-13.7-1.5l16.1,327.1c1.7,0.1,3.4,0.2,5.2,0.3c2.4,0.1,4.8,0.2,7.1,0.2
		C1097.9,479.3,1093,370.6,1088.1,261.9z"/>
    <path class="st5" d="M1180.8,577c-1.1,0.4-2.3,0.7-3.5,1c-2.2,0.7-4.3,1.2-6.3,1.7c-6.8-107.8-13.7-215.7-20.5-323.5l14.4,0.9
		L1180.8,577z"/>
    <path class="st2" d="M1127.4,222.1c0,0,80.7,16.3,81.7,44.9c1,28.6,13.2,293.3,13.2,293.3c-5.3,2.5-11.2,5.4-19.2,8.6
		c-7.2,2.9-12.2,5.1-22.3,8.1c0,0-15.2-307.6-15.7-314.1C1164.3,251.1,1158.8,241.8,1127.4,222.1z"/>
    <path class="st6" d="M1080.2,224.2l7.9,37.8c0,0-11,0.7-13.7-1.5c-3.9-3.3-6.9-21.4-5.2-31.2C1070,224.7,1080.2,224.2,1080.2,224.2
		z"/>
    <path class="st6"
          d="M1164.2,257.2c-7-29.3-19.9-28.4-26.3-30.3c-5.7-1.7-16.1-2.7-7.7,4.2c8.4,6.9,20.3,25.3,20.3,25.3"/>
    <path class="st3" d="M1080.3,224.4c0,0,6.1-2.9,2.8-39.1c0.3-38.5-2.6-59.4,29.3-63.4c28.1,1.1,37.3,14.9,37.9,22.7
		c0.6,7.7,0.6,7.7,0.6,7.7s-2.8,37.1-2.4,38.3c0.4,1.1,2.1,17.6,2.1,17.6s0.2,15.9-2.1,19.7c-2.3,3.8-6.8,5.9-9.2,7
		c-2.5,1.1-10.7,0-10.7,0s0.8,4.2-1.4,12.6C1125.6,253.3,1078.4,263.6,1080.3,224.4z"/>
    <ellipse class="st7" cx="1141.4" cy="171.5" rx="4" ry="6.1"/>
    <path class="st7"
          d="M1118.8,173.7c-3.3,0-5.9,2.1-5.9,0.7s2.7-2.7,5.9-2.7c3.3,0,5.9,1.2,5.9,2.7S1122,173.7,1118.8,173.7z"/>
    <path class="st7" d="M1089.7,186.5c-0.2-0.8-4.8-12.6-0.4-13c4-0.3,6.9,0.9,6.8,8.1c3.1,3,5.4-0.7,5.5-4.8
	c-0.1-6.3-0.2-11.2-0.2-11.2s14.9-6.8,30-5c22.7,2.6,53.6-25.6-1.3-45.3c-39-14-49.8,20.1-49.8,20.1s-1.8,4.3,1,19.9
	c1.2,6.8,0.7,21.8,0.8,33.2C1082.1,188.5,1093.8,204.4,1089.7,186.5z"/>
    <path class="st8" d="M1150.6,168.1c17.3-1,191.8-22.7,191.8-22.7s4.2,52.4-0.3,52c-4.5-0.3-191.5-21.6-191.5-21.6
			c-2.5-0.9-4-2.5-3.8-4.2C1147.1,169.4,1150.3,168.2,1150.6,168.1z"/>
    <path class="st8" d="M1330.4,171.1c0,14.7,6.5,26.7,14.5,26.7c8,0,14.5-11.9,14.5-26.7c0-14.7-6.5-26.7-14.5-26.7
			c-1,0-2,0.2-2.9,0.5C1335.4,147.4,1330.4,158.2,1330.4,171.1z"/>
    <ellipse class="st9" cx="1344.9" cy="170.8" rx="11.1" ry="21.1"/>
    <path class="st0" d="M1131,222.8c-7.2-0.5-12.7-7-12.2-14c0.5-7.1,10.2-1.3,17.5-0.8c7.2,0.5,9.2-4.4,8.7,2.7
	C1144.5,217.8,1138.2,223.4,1131,222.8z"/>
    <path class="st3" d="M1256.3,148.9c0,0-4.1-18.9-19.4-1.8c-18.8,20.9-5.8,22.1,27.7,16.5c33.5-5.6,11.2-14.5,11.2-14.5
		L1256.3,148.9z"/>
    <path class="st3" d="M1242.5,182.5c0,0-15.4-24.4-19.4-1.8c-0.6,3.3-5.8,22.1,27.7,16.5s11-9.7,11-9.7L1242.5,182.5z"/>


    <path class="st7" d="M1206.1,297.7c-0.8,16.7-1.5,33.6,1.6,50.1c0.8,4,1.8,8,2.6,12c0.8,4.1,1.2,8.3,1.4,12.5
			c0.4,8.5,0.3,17,0.4,25.5c0.2,16.9,0.7,33.8,3,50.5c1.1,8.4,2.5,16.7,3.1,25.1c0.6,8.5,0.7,17.1,0.7,25.6c0,19.3-0.1,38.6-0.1,58
			c0,0.6,2.9,0.1,2.9-0.8c0-17.3,0.1-34.5,0.1-51.8c0-8.5,0-17.1-0.3-25.6c-0.4-8.5-1.4-16.8-2.6-25.2c-2.5-16.7-3.5-33.5-3.8-50.3
			c-0.2-8.5-0.2-17.1-0.3-25.6c-0.1-4.2-0.2-8.4-0.6-12.6c-0.5-4.1-1.3-8.1-2.2-12.1c-2-9.1-3.1-18.4-3.4-27.7
			c-0.3-9.4,0.2-18.8,0.6-28.2C1209,296.4,1206.1,296.8,1206.1,297.7L1206.1,297.7z"/>
    <path class="st7" d="M1149.4,228.7c14.9,4.4,29.5,10.3,42.4,19c6.4,4.3,12.3,9.3,17.5,14.9c5.3,5.7,10,11.8,14.9,17.8
                c5.5,6.7,11.2,13.1,18.1,18.4c1.1,0.8,3.6-0.7,2.2-1.7c-12.4-9.6-20.9-22.9-31.3-34.4c-10.5-11.5-23.3-20.3-37.4-26.8
                c-8-3.7-16.3-6.7-24.8-9.2c-0.7-0.2-1.6-0.1-2,0.5C1148.6,227.7,1148.7,228.5,1149.4,228.7L1149.4,228.7z"/>
</svg>
